<svg width="50" height="52" viewBox="0 0 50 52" xmlns="http://www.w3.org/2000/svg"><title>direct-from</title><g fill="none" fill-rule="evenodd"><path d="M34.41 2S2 8.5 1.455 27.182C1.27 33.528 8.274 39.362 16 38 27.666 35.943 34.41 2 34.41 2z" stroke="#FFB8B8" stroke-width="2"/><path d="M1.942 50.293C1.54 48.22 9.534 23.722 19.727 16.004 11.095 26.286 6.52 48.327 5.49 50.32c-.898 1.732-3.146 2.046-3.549-.027z" fill="#FFB8B8"/><path d="M27 25h9v-5l14 12-14 13v-5H18v-2.5c2.264-1.644 3.764-2.977 4.5-4 .736-1.023 2.236-3.856 4.5-8.5z" fill-opacity=".4" fill="#FFB8B8"/></g></svg>