<svg width="56" height="56" viewBox="0 0 56 56" xmlns="http://www.w3.org/2000/svg" xmlns:xlink="http://www.w3.org/1999/xlink"><title>Group 3 Copy</title><defs><path id="a" d="M11.375 0v44.625H56V33.25H23.187V0z"/></defs><g fill="none" fill-rule="evenodd"><path d="M43.625 55h-9.813V21.75H1v-9.375h42.625V55z" stroke="#FFB8B8" stroke-width="2"/><path d="M42.875 20.125v1.75H38.5v-1.75zm0-4.375v1.75H38.5v-1.75zm0 13.125v1.75H38.5v-1.75zm0 4.375V35H38.5v-1.75zm0 17.5v1.75H38.5v-1.75zm0-4.375v1.75H38.5v-1.75zm0-8.75v1.75H38.5v-1.75zm0-13.125v1.75H38.5V24.5zm0 17.5v1.75H38.5V42z" fill="#FFB8B8" fill-opacity=".4"/><use fill="#FFF" xlink:href="#a"/><path stroke="#FFB8B8" stroke-width="2" d="M12.375 1h9.813v33.25H55v9.375H12.375V1z"/><g fill="#FFB8B8" fill-opacity=".4"><path d="M19.25 38.5H21v4.375h-1.75zm-4.375 0h1.75v4.375h-1.75zM28 38.5h1.75v4.375H28zm4.375 0h1.75v4.375h-1.75zm17.5 0h1.75v4.375h-1.75zm-4.375 0h1.75v4.375H45.5zm-8.75 0h1.75v4.375h-1.75zm-13.125 0h1.75v4.375h-1.75zm17.5 0h1.75v4.375h-1.75z"/></g></g></svg>