<svg width="55" height="48" viewBox="0 0 55 48" xmlns="http://www.w3.org/2000/svg" xmlns:xlink="http://www.w3.org/1999/xlink"><title>icon_tools</title><defs><path id="a" d="M12.555 11.231h8.968V53.38h-8.968z"/></defs><g fill="none" fill-rule="evenodd"><path d="M21.502 30.01l2.868 2.868c-.93 1.015-1.572 1.922-1.973 2.724a4.92 4.92 0 0 0-.396 1.03l-9.685 9.686-4.25-4.25 9.726-9.726a7.137 7.137 0 0 0 1.143-.498c.812-.43 1.673-1.032 2.567-1.834z" stroke="#FFB8B8" stroke-width="2"/><path stroke="#FFB8B8" stroke-width="2" d="M21.52 30.03L47.366 4.187l3.187-.354-.354 3.187-25.845 25.844z"/><path fill="#FFB8B8" opacity=".4" d="M20.105 30.03l3.54 3.54-11.33 11.33-3.54-3.54z"/><g><g transform="rotate(-45 22.221 7.146)"><use fill="#FFF" xlink:href="#a"/><path stroke="#FFB8B8" stroke-width="2" d="M13.555 12.231h6.968V52.38h-6.968z"/></g><path d="M10.031 26.38C26.664 9.748 33.323 1.822 36.811 5.31 25.079-6.423 10.163 10.367 2.09 18.439l7.941 7.942z" stroke="#FFB8B8" stroke-width="2"/><path fill="#FFB8B8" opacity=".4" d="M2.568 18.625l3.17-3.17 6.976 6.975-3.17 3.17z"/></g></g></svg>