<svg width="54" height="54" viewBox="0 0 54 54" xmlns="http://www.w3.org/2000/svg"><title>Group 3 Copy 11</title><g transform="translate(-1 -1)" fill="none" fill-rule="evenodd"><ellipse stroke="#FFB8B8" stroke-width="2" cx="28" cy="28" rx="25.375" ry="25.375"/><ellipse fill="#FFF" cx="28" cy="28" rx="17.5" ry="17.5"/><path fill="#FFB8B8" d="M27.125 8.75h1.75v21h-1.75z"/><path fill="#FFB8B8" d="M39.634 39.271l-1.237 1.238-13.022-13.022 1.238-1.237z"/><rect fill="#FFE3E3" x="24.5" y="24.5" width="7" height="7" rx="3.5"/><path d="M27.125 48.125h1.75V52.5h-1.75zm0-44.625h1.75v4.375h-1.75zM7.875 27.126v1.75H3.5v-1.75zm44.625 0v1.75h-4.375v-1.75zM17.18 44.991l1.515.875-2.187 3.79-1.516-.876zM39.492 6.345l1.516.875-2.188 3.789-1.515-.875zM11.008 17.18l-.875 1.515-3.789-2.187.875-1.516zm38.646 22.312l-.875 1.516-3.788-2.188.875-1.515zM10.134 37.305l.875 1.515-3.79 2.188-.874-1.516zM48.78 14.992l.875 1.516-3.789 2.187-.875-1.515zm-30.085-4.858l-1.516.875-2.187-3.79 1.515-.874zM41.007 48.78l-1.515.875-2.188-3.789 1.516-.875z" fill="#FFB8B8" opacity=".4"/></g></svg>