<svg width="29" height="55" viewBox="0 0 29 55" xmlns="http://www.w3.org/2000/svg"><title>Group 3 Copy 10</title><g transform="translate(-13 -1)" fill="none" fill-rule="evenodd"><path fill="#FFB8B8" opacity=".4" d="M14.875 3.5H17.5v7h-2.625zm4.375 0h2.625V14H19.25zm4.375 0h2.625v5.25h-2.625zm13.125 0h2.625v7H36.75zM28 3.5h2.625v8.75H28zm4.375 0H35v9.625h-2.625z"/><path d="M14.125 2.75h26v26.382l-9.072 4.536-.516.258-.035.576-.875 14.438-.016.267.12.24c.697 1.396.686 3.025.113 3.74-1.35 1.688-4.088 1.688-5.438 0-.573-.715-.584-2.344.113-3.74l.12-.24-.016-.267-.875-14.438-.035-.576-.516-.258-9.072-4.536V2.75z" stroke="#FFB8B8" stroke-width="2"/><path fill="#FFB8B8" d="M14 21.875h26.25v1.75H14z"/><path fill="#FFB8B8" opacity=".4" d="M14.875 23.625h24.5v2.625h-24.5z"/><circle fill="#FFB8B8" cx="27.125" cy="51.625" r="1"/></g></svg>