<svg width="56" height="57" viewBox="0 0 56 57" xmlns="http://www.w3.org/2000/svg"><title>Group 3 Copy 13</title><g fill="none" fill-rule="evenodd"><path d="M1 2h25.668l13.457 15.56V56H1V2z" stroke="#FFB8B8" stroke-width="2"/><path stroke="#FFB8B8" stroke-width="2" stroke-linejoin="round" d="M27.125 1.875v15.313h12.688z"/><path fill-opacity=".4" fill="#FFB8B8" d="M6.125 12.375H21V15H6.125zm0 7.875H31.5v2.625H6.125zm0 15.75H31.5v2.625H6.125zm0-7.875H31.5v2.625H6.125zm0 15.75H31.5V46.5H6.125z"/><path d="M28 32.068l1.237-1.238 8.044 8.044-1.238 1.237L28 32.068zm25.986-9.9l1.238 1.238L37.28 41.349l-1.238-1.238 17.943-17.943z" fill="#FFE3E3"/><path d="M23.625 32.068l1.237-1.238 8.044 8.044-1.238 1.237-8.043-8.043zm25.986-9.9l1.238 1.238-17.943 17.943-1.238-1.238 17.943-17.943z" fill="#FFB8B8"/></g></svg>