<svg width="35" height="56" viewBox="0 0 35 56" xmlns="http://www.w3.org/2000/svg" xmlns:xlink="http://www.w3.org/1999/xlink"><title>Group 3 Copy 9</title><defs><path id="a" d="M11.375 17.5H45.5V56H11.375z"/></defs><g fill="none" fill-rule="evenodd"><path d="M1.375 17.938c0-10.053 6.996-16.391 16.063-16.391 9.066 0 16.062 6.338 16.062 16.39 0 3.61-7.021 6.325-16.069 6.383-9.118.059-16.056-2.595-16.056-6.383z" stroke="#FFB8B8" stroke-width="2"/><g transform="translate(-11)"><use fill="#FFF" xlink:href="#a"/><path stroke="#FFB8B8" stroke-width="2" d="M12.375 18.5H44.5V55H12.375z"/></g><path fill="#FFB8B8" opacity=".4" d="M3 19.25h4.375V31.5H3zm18.375 0h4.375V31.5h-4.375zm6.125 0h4.375v6.125H27.5zm-18.375 0H13.5V28H9.125zm6.125 0h4.375v17.5H15.25zm3.5 26.25h11.375v6.125H18.75z"/></g></svg>