<?xml version="1.0" encoding="UTF-8"?>
<svg width="40px" height="40px" viewBox="0 0 40 40" version="1.1" xmlns="http://www.w3.org/2000/svg" xmlns:xlink="http://www.w3.org/1999/xlink">
    <!-- Generator: Sketch 43.1 (39012) - http://www.bohemiancoding.com/sketch -->
    <title>Group 3 Copy 5</title>
    <desc>Created with Sketch.</desc>
    <defs></defs>
    <g id="Page-1" stroke="none" stroke-width="1" fill="none" fill-rule="evenodd">
        <g id="首页---家具展开" transform="translate(-390.000000, -120.000000)">
            <g id="menu" transform="translate(0.000000, 100.000000)">
                <g id="Group-3-Copy-5" transform="translate(390.000000, 20.000000)">
                    <polygon id="Line" fill="#FFB8B8" fill-rule="nonzero" points="19.375 4.375 19.375 36.25 20.625 36.25 20.625 4.375"></polygon>
                    <rect id="Rectangle-25" fill="#FFB8B8" x="16.25" y="18.75" width="1.25" height="3.125"></rect>
                    <rect id="Rectangle-27" fill-opacity="0.4" fill="#FFB8B8" x="20.625" y="28.125" width="15" height="7.5"></rect>
                    <rect id="Rectangle-23" stroke="#FFB8B8" stroke-width="2" x="1" y="1" width="38" height="38"></rect>
                    <rect id="Rectangle-24" stroke="#FFB8B8" stroke-width="2" x="4.125" y="4.125" width="31.75" height="31.75"></rect>
                    <rect id="Rectangle-26" fill-opacity="0.4" fill="#FFB8B8" x="20.625" y="4.375" width="15" height="7.5"></rect>
                    <rect id="Rectangle-28" fill="#FFB8B8" x="20.625" y="14.375" width="16.25" height="1.25"></rect>
                    <polygon id="Path-19" stroke="#FFB8B8" stroke-width="2" stroke-linecap="round" stroke-linejoin="bevel" points="25.3811076 15.625 22.5 18.5061076 28.220729 18.5061076"></polygon>
                    <polygon id="Path-19" stroke="#FFB8B8" stroke-width="2" stroke-linecap="round" stroke-linejoin="bevel" points="29.1311076 15.625 26.25 18.5061076 31.970729 18.5061076"></polygon>
                    <rect id="Rectangle-25" fill="#FFB8B8" transform="translate(27.812500, 30.000000) rotate(90.000000) translate(-27.812500, -30.000000) " x="27.1875" y="28.4375" width="1.25" height="3.125"></rect>
                </g>
            </g>
        </g>
    </g>
</svg>