<svg xmlns="http://www.w3.org/2000/svg" width="200" height="176" viewBox="0 0 200 176"><g fill="none"><path fill="#F5B4B4" d="M67.065 11.961c-4.883-2.597-9.662-2.753-9.87-2.753l-1.974-.052v96.052h21.922V29.83c0-10.337-5.455-15.428-10.078-17.87z"/><path fill="#040000" opacity=".05" d="M55.221 71.857l21.922-22.493v-2.078l-21.922 20z"/><path fill="#040000" d="M77.143 48.22L55.22 73v27.22c4.311-.934 7.948-3.116 10.909-6.493L77.143 81.26V48.22z" opacity=".05"/><path fill="#F5B4B4" d="M139.117 65.831l-24.104-24.104c-4.208-4.208-9.766-6.493-15.74-6.493-5.922 0-11.533 2.337-15.74 6.493L34.077 91.286l2.182 1.246c.26.156 6.857 3.897 14.753 3.897 5.922 0 10.961-2.026 14.961-6.078L99.013 57.26c.052-.052.104-.104.208-.104s.156.052.208.104l24.103 24.104c.052.052.104.104.104.207v24.572a.52.52 0 0 1-.52.52H77.663a.52.52 0 0 1-.52-.52v-2.182H55.222v2.182c0 12.363 10.078 22.441 22.493 22.441h45.455c12.363 0 22.441-10.078 22.441-22.441V81.57c0-5.974-2.285-11.532-6.493-15.74z"/><path fill="#040000" d="M139.117 65.831l-24.104-24.104c-4.208-4.208-9.766-6.493-15.74-6.493-5.922 0-11.533 2.337-15.74 6.493l-.78.78-.052.051.364-.363c4.156-4.156 9.818-6.338 15.688-6.338 5.818 0 11.325 2.286 15.48 6.39l23.69 23.688c4.155 4.156 6.389 9.61 6.389 15.48v24.156c0 12.156-9.922 22.078-22.078 22.078H77.506c-11.844 0-21.714-9.246-22.285-20.935.311 12.104 10.234 21.87 22.441 21.87h45.455c12.364 0 22.441-10.078 22.441-22.441V81.57c.052-5.974-2.233-11.532-6.441-15.74z" opacity=".05"/><g fill="#F5B4B4"><path d="M.26 138.714v-1.766h20.883v1.766H.26zm0 27.584v-1.87h20.883v1.87H.26zm11.169-22.285c.727 0 1.402.052 2.026.208a5.081 5.081 0 0 1 1.61.727c.416.363.78.78 1.039 1.299.26.519.364 1.142.364 1.818 0 1.298-.624 2.337-1.87 3.065.83.311 1.506.779 1.921 1.35.468.572.676 1.351.676 2.234 0 .831-.156 1.507-.416 2.078-.311.571-.675 1.039-1.195 1.403-.467.363-1.039.623-1.714.779-.675.156-1.35.208-2.078.208H6.13V143.96h5.299v.052zM8.779 157h3.48c.728 0 1.3-.208 1.663-.572.364-.363.572-.883.572-1.558 0-.78-.26-1.35-.728-1.766-.467-.416-1.143-.624-1.974-.624H8.78V157zm.052-6.702h2.857c.624 0 1.143-.207 1.507-.57.363-.365.571-.832.571-1.352 0-.675-.208-1.142-.571-1.558-.364-.364-.883-.571-1.61-.571H8.83v4.051z"/><path d="M20.104 138.714v-1.766h20.883v1.766H20.104zm0 27.584v-1.87h20.883v1.87H20.104zm15.636-22.285v2.234h-6.753v3.532h5.455v2.182h-5.455v4.935h6.753v2.286h-9.454V143.96h9.454v.052z"/><path d="M39.948 138.714v-1.766h20.883v1.766H39.948zm0 27.584v-1.87h20.883v1.87H39.948zm11.792-22.285v15.22h-2.65v-15.22h2.65z"/><path d="M59.792 138.714v-1.766h20.883v1.766H59.792zm0 27.584v-1.87h20.883v1.87H59.792zm6.182-22.285l8.52 11.065v-11.065h2.649v15.22h-2.65l-8.519-11.064v11.065h-2.65v-15.221h2.65z"/><path d="M79.636 138.714v-1.766h20.883v1.766H79.636zm0 27.584v-1.87h20.883v1.87H79.636zm11.013-22.493c1.507 0 2.702.312 3.689.987.987.675 1.714 1.558 2.233 2.65l-2.337 1.038c-.364-.675-.831-1.194-1.403-1.662-.571-.468-1.299-.675-2.182-.675-1.662 0-2.96.52-3.844 1.506-.883.987-1.299 2.286-1.299 3.844 0 1.767.468 3.17 1.403 4.156.935 1.04 2.338 1.507 4.156 1.507.52 0 .935-.052 1.35-.156.416-.104.832-.208 1.3-.416v-3.273H90.39l.571-2.337h5.455v6.909a10.16 10.16 0 0 1-2.546 1.195c-.831.208-1.766.311-2.805.311-2.546 0-4.571-.675-5.974-1.974-1.455-1.298-2.182-3.272-2.182-5.818 0-1.195.156-2.234.52-3.22a7.767 7.767 0 0 1 1.558-2.494c.675-.675 1.507-1.195 2.442-1.559.935-.311 2.026-.519 3.22-.519z"/><path d="M99.48 138.714v-1.766h20.884v1.766H99.48zm0 27.584v-1.87h20.884v1.87H99.48zm6.806-22.285v5.662h7.376v-5.662h2.65v15.22h-2.598v-7.272h-7.376v7.273h-2.65v-15.221h2.598z"/><path d="M119.325 138.714v-1.766h20.883v1.766h-20.883zm0 27.584v-1.87h20.883v1.87h-20.883zm10.441-22.597c1.143 0 2.182.156 3.117.52.935.363 1.714.83 2.338 1.506.623.675 1.143 1.455 1.454 2.442.364.935.52 2.026.52 3.272 0 1.247-.156 2.338-.468 3.377-.311.987-.779 1.87-1.402 2.545a6.275 6.275 0 0 1-2.338 1.61c-.935.364-2.026.572-3.22.572-2.442 0-4.26-.727-5.56-2.13-1.246-1.402-1.921-3.376-1.921-5.87 0-2.493.675-4.467 1.974-5.818 1.298-1.35 3.169-2.026 5.506-2.026zm.052 2.234c-.779 0-1.506.156-2.13.415-.623.26-1.09.676-1.506 1.143-.416.52-.676 1.091-.883 1.767-.208.675-.312 1.454-.312 2.285 0 .78.104 1.559.312 2.234.207.675.52 1.299.883 1.818.415.52.883.935 1.506 1.247.572.312 1.299.467 2.078.467.831 0 1.559-.155 2.13-.415.623-.312 1.091-.675 1.507-1.195.415-.52.675-1.143.883-1.818.208-.675.311-1.455.311-2.286 0-.779-.103-1.558-.311-2.234-.208-.675-.52-1.298-.883-1.766a3.85 3.85 0 0 0-1.455-1.143c-.675-.363-1.35-.52-2.13-.52z"/><path d="M139.169 138.714v-1.766h20.883v1.766h-20.883zm0 27.584v-1.87h20.883v1.87h-20.883zm6.857-22.285v10.337c0 1.04.364 1.819 1.039 2.234.675.468 1.558.676 2.597.676.416 0 .883-.052 1.299-.156.416-.104.831-.26 1.143-.468a2.72 2.72 0 0 0 .831-.883c.208-.364.312-.883.312-1.455v-10.337h2.701v10.701c0 1.559-.52 2.753-1.61 3.585-1.04.83-2.65 1.246-4.728 1.246-2.026 0-3.584-.415-4.675-1.246-1.09-.832-1.61-2.026-1.61-3.585v-10.701h2.701v.052z"/><path d="M159.065 138.714v-1.766h20.883v1.766h-20.883zm0 27.584v-1.87h20.883v1.87h-20.883zm10.286-6.805c-.728 0-1.351-.104-1.922-.311-.572-.208-1.091-.468-1.559-.832a5.186 5.186 0 0 1-1.143-1.246 4.1 4.1 0 0 1-.623-1.559l2.182-.883c.104.416.311.78.52 1.143.207.312.467.571.778.78.26.207.572.363.884.467.311.104.623.156.935.156.883 0 1.506-.208 1.974-.624.467-.415.675-.987.675-1.61 0-.468-.156-.883-.52-1.195-.363-.312-.779-.571-1.35-.831-.52-.26-1.143-.52-1.714-.78a9.041 9.041 0 0 1-1.715-.934 5.56 5.56 0 0 1-1.35-1.351c-.364-.52-.52-1.195-.52-2.026 0-.52.104-1.091.364-1.559.26-.519.571-.935 1.039-1.35.415-.364.935-.675 1.506-.935.572-.208 1.247-.364 1.922-.364 1.403 0 2.546.364 3.377 1.143a5.28 5.28 0 0 1 1.61 2.805l-2.182.883c-.207-.83-.57-1.506-1.142-1.922-.52-.415-1.091-.623-1.663-.623-.311 0-.571.052-.83.156-.26.104-.52.26-.728.415a2.442 2.442 0 0 0-.468.624 1.66 1.66 0 0 0-.156.727c0 .52.156.987.52 1.299.364.311.78.623 1.35.83.52.26 1.143.468 1.715.728.623.208 1.195.52 1.714.883.52.364.987.78 1.35 1.299.364.52.52 1.247.52 2.078 0 .571-.104 1.143-.363 1.662a5.724 5.724 0 0 1-1.04 1.455c-.467.415-1.038.727-1.662.987-.623.26-1.454.415-2.285.415z"/><path d="M178.91 138.714v-1.766h20.882v1.766H178.91zm0 27.584v-1.87h20.882v1.87H178.91zm15.635-22.285v2.234h-6.753v3.532h5.455v2.182h-5.455v4.935h6.753v2.286h-9.454V143.96h9.454v.052z"/></g><path d="M93.922 83.026v3.065h5.142v-5.143H96a2.084 2.084 0 0 0-2.078 2.078zm0 7.429a2.14 2.14 0 0 0 2.13 2.13h3.064v-5.143h-5.142v3.013h-.052zm6.441 2.078h3.065a2.14 2.14 0 0 0 2.13-2.13v-3.065h-5.143v5.195h-.052zm6.805-13.195c.052-.052.052-.052.052-.104v-.052h-.156-.415c-1.507.156-2.182.883-2.91 2.078-.051.052-.051.104-.103.104s-.104-.052-.156-.052c-.104-.052-.208-.052-.312-.104-.104 0-.156-.052-.26-.104a.75.75 0 0 0-.363-.104c-.104-.052-.26-.052-.416-.052-.104 0-.207.052-.363.104-.208.104-.416.26-.572.468l-.311.467c-.052.052-.052.156-.104.208 0 .052-.052.104-.052.104-.052.104-.052.156-.104.26-.052.103-.052.207-.052.311 0 .156-.052.312-.052.468 0 .415.052.831.208 1.195.052.155.104.26.208.415.052.052.052.104.103.156.052.104.156.156.208.26.208.156.416.363.624.363h.467c.104 0 .156 0 .26.052.104.052.208.104.312.104.103.052.155.052.26.052h.363c.104 0 .26-.052.312-.052a.843.843 0 0 0 .467-.26 2.26 2.26 0 0 0 .364-.311l.26-.26c.052-.104.155-.156.207-.26.052-.052.104-.104.104-.156.052-.103.156-.207.208-.311.156-.312.208-.624.208-1.04v-.415c0-.104 0-.156-.052-.208 0-.051-.052-.103-.052-.155 0 0 0-.052-.052-.052 0-.052-.052-.104-.052-.156-.052-.104-.156-.208-.26-.312a.837.837 0 0 0-.363-.208c-.208-.104-.416-.155-.572-.207-.156-.052-.311-.052-.415-.104.052-.052.052-.104.104-.156.623-.987 1.194-1.87 2.7-1.87H107.22c-.052 0-.052 0-.052-.104 0 .052 0 .052 0 0z" fill="#EAB1AA"/></g></svg>