<svg xmlns="http://www.w3.org/2000/svg" width="200" height="176" viewBox="0 0 200 176"><g fill="none"><path fill="#F5B4B4" d="M67.065 2.961C62.182.364 57.403.208 57.195.208L55.22.156v96.052h21.922V20.83c0-10.337-5.455-15.428-10.078-17.87z"/><path fill="#040000" opacity=".05" d="M55.221 62.857l21.922-22.493v-2.078l-21.922 20z"/><path fill="#040000" d="M77.143 39.22L55.22 64v27.22c4.311-.934 7.948-3.116 10.909-6.493L77.143 72.26V39.22z" opacity=".05"/><path fill="#F5B4B4" d="M139.117 56.831l-24.104-24.104c-4.208-4.208-9.766-6.493-15.74-6.493-5.922 0-11.533 2.337-15.74 6.493L34.077 82.286l2.182 1.246c.26.156 6.857 3.897 14.753 3.897 5.922 0 10.961-2.026 14.961-6.078L99.013 48.26c.052-.052.104-.104.208-.104s.156.052.208.104l24.103 24.104c.052.052.104.104.104.207v24.572a.52.52 0 0 1-.52.52H77.663a.52.52 0 0 1-.52-.52V94.96H55.222v2.182c0 12.363 10.078 22.441 22.493 22.441h45.455c12.363 0 22.441-10.078 22.441-22.441V72.57c0-5.974-2.285-11.532-6.493-15.74z"/><path fill="#040000" d="M139.117 56.831l-24.104-24.104c-4.208-4.208-9.766-6.493-15.74-6.493-5.922 0-11.533 2.337-15.74 6.493l-.78.78-.052.051.364-.363c4.156-4.156 9.818-6.338 15.688-6.338 5.818 0 11.325 2.286 15.48 6.39l23.69 23.688c4.155 4.156 6.389 9.61 6.389 15.48v24.156c0 12.156-9.922 22.078-22.078 22.078H77.506c-11.844 0-21.714-9.246-22.285-20.935.311 12.104 10.234 21.87 22.441 21.87h45.455c12.364 0 22.441-10.078 22.441-22.441V72.57c.052-5.974-2.233-11.532-6.441-15.74z" opacity=".05"/><g fill="#F5B4B4"><path d="M.26 129.714v-1.766h20.883v1.766H.26zm0 27.584v-1.87h20.883v1.87H.26zm11.169-22.285c.727 0 1.402.052 2.026.208a5.081 5.081 0 0 1 1.61.727c.416.363.78.78 1.039 1.299.26.519.364 1.142.364 1.818 0 1.298-.624 2.337-1.87 3.065.83.311 1.506.779 1.921 1.35.468.572.676 1.351.676 2.234 0 .831-.156 1.507-.416 2.078-.311.571-.675 1.039-1.195 1.403-.467.363-1.039.623-1.714.779-.675.156-1.35.208-2.078.208H6.13V134.96h5.299v.052zM8.779 148h3.48c.728 0 1.3-.208 1.663-.572.364-.363.572-.883.572-1.558 0-.78-.26-1.35-.728-1.766-.467-.416-1.143-.624-1.974-.624H8.78V148zm.052-6.702h2.857c.624 0 1.143-.207 1.507-.57.363-.365.571-.832.571-1.352 0-.675-.208-1.142-.571-1.558-.364-.364-.883-.571-1.61-.571H8.83v4.051z"/><path d="M20.104 129.714v-1.766h20.883v1.766H20.104zm0 27.584v-1.87h20.883v1.87H20.104zm15.636-22.285v2.234h-6.753v3.532h5.455v2.182h-5.455v4.935h6.753v2.286h-9.454V134.96h9.454v.052z"/><path d="M39.948 129.714v-1.766h20.883v1.766H39.948zm0 27.584v-1.87h20.883v1.87H39.948zm11.792-22.285v15.22h-2.65v-15.22h2.65z"/><path d="M59.792 129.714v-1.766h20.883v1.766H59.792zm0 27.584v-1.87h20.883v1.87H59.792zm6.182-22.285l8.52 11.065v-11.065h2.649v15.22h-2.65l-8.519-11.064v11.065h-2.65v-15.221h2.65z"/><path d="M79.636 129.714v-1.766h20.883v1.766H79.636zm0 27.584v-1.87h20.883v1.87H79.636zm11.013-22.493c1.507 0 2.702.312 3.689.987.987.675 1.714 1.558 2.233 2.65l-2.337 1.038c-.364-.675-.831-1.194-1.403-1.662-.571-.468-1.299-.675-2.182-.675-1.662 0-2.96.52-3.844 1.506-.883.987-1.299 2.286-1.299 3.844 0 1.767.468 3.17 1.403 4.156.935 1.04 2.338 1.507 4.156 1.507.52 0 .935-.052 1.35-.156.416-.104.832-.208 1.3-.416v-3.273H90.39l.571-2.337h5.455v6.909a10.16 10.16 0 0 1-2.546 1.195c-.831.208-1.766.311-2.805.311-2.546 0-4.571-.675-5.974-1.974-1.455-1.298-2.182-3.272-2.182-5.818 0-1.195.156-2.234.52-3.22a7.767 7.767 0 0 1 1.558-2.494c.675-.675 1.507-1.195 2.442-1.559.935-.311 2.026-.519 3.22-.519z"/><path d="M99.48 129.714v-1.766h20.884v1.766H99.48zm0 27.584v-1.87h20.884v1.87H99.48zm6.806-22.285v5.662h7.376v-5.662h2.65v15.22h-2.598v-7.272h-7.376v7.273h-2.65v-15.221h2.598z"/><path d="M119.325 129.714v-1.766h20.883v1.766h-20.883zm0 27.584v-1.87h20.883v1.87h-20.883zm10.441-22.597c1.143 0 2.182.156 3.117.52.935.363 1.714.83 2.338 1.506.623.675 1.143 1.455 1.454 2.442.364.935.52 2.026.52 3.272 0 1.247-.156 2.338-.468 3.377-.311.987-.779 1.87-1.402 2.545a6.275 6.275 0 0 1-2.338 1.61c-.935.364-2.026.572-3.22.572-2.442 0-4.26-.727-5.56-2.13-1.246-1.402-1.921-3.376-1.921-5.87 0-2.493.675-4.467 1.974-5.818 1.298-1.35 3.169-2.026 5.506-2.026zm.052 2.234c-.779 0-1.506.156-2.13.415-.623.26-1.09.676-1.506 1.143-.416.52-.676 1.091-.883 1.767-.208.675-.312 1.454-.312 2.285 0 .78.104 1.559.312 2.234.207.675.52 1.299.883 1.818.415.52.883.935 1.506 1.247.572.312 1.299.467 2.078.467.831 0 1.559-.155 2.13-.415.623-.312 1.091-.675 1.507-1.195.415-.52.675-1.143.883-1.818.208-.675.311-1.455.311-2.286 0-.779-.103-1.558-.311-2.234-.208-.675-.52-1.298-.883-1.766a3.85 3.85 0 0 0-1.455-1.143c-.675-.363-1.35-.52-2.13-.52z"/><path d="M139.169 129.714v-1.766h20.883v1.766h-20.883zm0 27.584v-1.87h20.883v1.87h-20.883zm6.857-22.285v10.337c0 1.04.364 1.819 1.039 2.234.675.468 1.558.676 2.597.676.416 0 .883-.052 1.299-.156.416-.104.831-.26 1.143-.468a2.72 2.72 0 0 0 .831-.883c.208-.364.312-.883.312-1.455v-10.337h2.701v10.701c0 1.559-.52 2.753-1.61 3.585-1.04.83-2.65 1.246-4.728 1.246-2.026 0-3.584-.415-4.675-1.246-1.09-.832-1.61-2.026-1.61-3.585v-10.701h2.701v.052z"/><path d="M159.065 129.714v-1.766h20.883v1.766h-20.883zm0 27.584v-1.87h20.883v1.87h-20.883zm10.286-6.805c-.728 0-1.351-.104-1.922-.311-.572-.208-1.091-.468-1.559-.832a5.186 5.186 0 0 1-1.143-1.246 4.1 4.1 0 0 1-.623-1.559l2.182-.883c.104.416.311.78.52 1.143.207.312.467.571.778.78.26.207.572.363.884.467.311.104.623.156.935.156.883 0 1.506-.208 1.974-.624.467-.415.675-.987.675-1.61 0-.468-.156-.883-.52-1.195-.363-.312-.779-.571-1.35-.831-.52-.26-1.143-.52-1.714-.78a9.041 9.041 0 0 1-1.715-.934 5.56 5.56 0 0 1-1.35-1.351c-.364-.52-.52-1.195-.52-2.026 0-.52.104-1.091.364-1.559.26-.519.571-.935 1.039-1.35.415-.364.935-.675 1.506-.935.572-.208 1.247-.364 1.922-.364 1.403 0 2.546.364 3.377 1.143a5.28 5.28 0 0 1 1.61 2.805l-2.182.883c-.207-.83-.57-1.506-1.142-1.922-.52-.415-1.091-.623-1.663-.623-.311 0-.571.052-.83.156-.26.104-.52.26-.728.415a2.442 2.442 0 0 0-.468.624 1.66 1.66 0 0 0-.156.727c0 .52.156.987.52 1.299.364.311.78.623 1.35.83.52.26 1.143.468 1.715.728.623.208 1.195.52 1.714.883.52.364.987.78 1.35 1.299.364.52.52 1.247.52 2.078 0 .571-.104 1.143-.363 1.662a5.724 5.724 0 0 1-1.04 1.455c-.467.415-1.038.727-1.662.987-.623.26-1.454.415-2.285.415z"/><path d="M178.91 129.714v-1.766h20.882v1.766H178.91zm0 27.584v-1.87h20.882v1.87H178.91zm15.635-22.285v2.234h-6.753v3.532h5.455v2.182h-5.455v4.935h6.753v2.286h-9.454V134.96h9.454v.052z"/></g><path d="M61.299 165.662c-.26.312-.52.78-.935 1.455-.416.675-.676 1.194-.831 1.61.987-.208 1.662-.312 2.026-.312.155 0 .311 0 .415.052a.286.286 0 0 1 .156.26c0 .312-.156.467-.468.467h-.415c-.468 0-1.195.156-2.234.468-.675 1.247-1.247 2.753-1.714 4.52-.052.26-.156.415-.312.415-.104 0-.208-.104-.312-.26a.75.75 0 0 1-.103-.363c0-.156.103-.572.363-1.351a23.623 23.623 0 0 1 1.766-4c.468-.883.987-1.818 1.61-2.857-.155 0-.207-.104-.207-.312 0-.26.208-.415.623-.571.572-.208 1.195-.312 1.715-.416.623-.104 1.143-.156 1.454-.156.52 0 .78.156.78.468 0 .156-.053.26-.208.363-.052.052-.104.052-.156.052h-.208c-.156 0-.312-.052-.416-.052-.26 0-.675.052-1.246.156-.364.156-.78.26-1.143.364zm4.104 3.013l.26-.052c.986-.208 1.714-.312 2.077-.312.26 0 .416.104.416.364 0 .156-.052.26-.156.312-.052.052-.208.052-.415.052-1.143.103-2.078.26-2.65.467-.26.416-.571 1.143-1.039 2.234-.26.623-.467 1.195-.623 1.766.104-.052.208-.104.312-.104.675-.26 1.142-.415 1.454-.467a5.035 5.035 0 0 1 1.195-.156c.26 0 .415.052.52.104.103.052.155.156.155.311 0 .156-.052.26-.208.312-.052 0-.207.052-.415.052-1.195.052-2.234.416-3.169.987-.104.052-.208.104-.312.104a.45.45 0 0 1-.363-.208c-.104-.104-.104-.26-.104-.363 0-.104.156-.572.415-1.403a27.907 27.907 0 0 1 1.767-4c.207-.416.623-1.195 1.246-2.234.156-.26.26-.467.416-.727-.156-.052-.26-.208-.26-.416 0-.156.052-.26.208-.363.26-.104.675-.26 1.35-.364.988-.156 1.819-.26 2.546-.26.416 0 .572.104.572.364a.472.472 0 0 1-.208.416c-.052.051-.156.103-.312.103h-.364c-.311 0-.779.052-1.402.104-.52.052-.987.156-1.35.312.051.052.051.156.051.156 0 .104-.104.26-.312.571l-.311.572c-.52.83-.831 1.402-.987 1.766zm5.766 0l.26-.052c.987-.208 1.714-.312 2.078-.312.26 0 .415.104.415.364 0 .156-.052.26-.156.312-.052.052-.207.052-.415.052-1.143.103-2.078.26-2.65.467-.26.416-.571 1.143-1.039 2.234-.26.623-.467 1.195-.623 1.766.104-.052.208-.104.312-.104.675-.26 1.143-.415 1.454-.467a5.035 5.035 0 0 1 1.195-.156c.26 0 .416.052.52.104.103.052.155.156.155.311 0 .156-.052.26-.207.312-.052 0-.208.052-.416.052-1.195.052-2.234.416-3.169.987-.104.052-.208.104-.311.104a.45.45 0 0 1-.364-.208c-.104-.104-.104-.26-.104-.363 0-.104.156-.572.416-1.403a27.907 27.907 0 0 1 1.766-4c.208-.416.623-1.195 1.247-2.234.155-.26.26-.467.415-.727-.156-.052-.26-.208-.26-.416 0-.156.052-.26.208-.363.26-.104.676-.26 1.35-.364.988-.156 1.819-.26 2.546-.26.416 0 .572.104.572.364a.472.472 0 0 1-.208.416c-.052.051-.156.103-.312.103h-.363c-.312 0-.78.052-1.403.104-.52.052-.987.156-1.35.312.051.052.051.156.051.156 0 .104-.104.26-.311.571l-.312.572c-.468.83-.78 1.402-.987 1.766zm3.325 4.935c.104-.052.207-.052.26-.104 1.038-.364 1.766-.52 2.233-.52.364 0 .52.156.52.416 0 .104-.052.208-.104.312-.052.104-.156.104-.26.104h-.364c-.26 0-.623.052-1.039.208-.155.052-.467.207-.935.415-.311.156-.571.208-.727.208-.156 0-.26-.052-.364-.208-.104-.156-.104-.26-.104-.415 0-.208.104-.52.26-.935.572-1.351 1.143-2.598 1.818-3.689a126.907 126.907 0 0 1 2.13-3.428c.156-.208.26-.416.416-.572.208-.311.415-.52.571-.52.104 0 .156.053.208.105a.394.394 0 0 1 .104.207c0 .104-.052.26-.208.52-.052.052-.208.312-.571.831-.624.935-1.091 1.662-1.455 2.182-.311.52-.623 1.09-.987 1.714-.727 1.247-1.195 2.338-1.402 3.169zm5.246-2.286c.26 0 .364.104.364.312 0 .156-.104.312-.364.364-.363.155-.571.415-.571.83 0 .312.104.572.364.78.207.156.415.208.727.208.571 0 1.09-.208 1.558-.572.26-.26.416-.571.416-.935 0-.207-.052-.415-.104-.623a5.96 5.96 0 0 0-.416-.727c-.26-.468-.52-.883-.675-1.247-.208-.416-.312-.831-.312-1.195 0-.935.416-1.818 1.247-2.65.468-.415.935-.778 1.455-1.038a2.978 2.978 0 0 1 1.298-.312c.26 0 .468.104.676.26.207.208.363.415.363.78 0 .519-.26 1.038-.727 1.61a5.726 5.726 0 0 1-1.61 1.35c-.312.156-.52.26-.676.26a.286.286 0 0 1-.26-.156.394.394 0 0 1-.103-.208c0-.208.156-.311.467-.467a3.896 3.896 0 0 0 1.455-.935c.52-.52.831-.935.831-1.3a.472.472 0 0 0-.156-.363c-.104-.052-.208-.104-.312-.104-.311 0-.675.156-1.194.416-.624.364-1.143.831-1.507 1.403-.312.467-.467.987-.467 1.402 0 .312.103.675.26 1.04.155.31.311.623.519.986.208.364.363.675.52.987.155.364.259.675.259.987 0 .572-.312 1.143-.935 1.559a2.99 2.99 0 0 1-1.766.571c-.624 0-1.143-.208-1.507-.571-.26-.312-.415-.624-.415-1.04 0-.415.156-.83.415-1.09.156-.156.364-.312.572-.416.104-.104.207-.156.311-.156zm8.987 2.286c.104-.052.208-.052.26-.104 1.04-.364 1.766-.52 2.234-.52.364 0 .52.156.52.416 0 .104-.053.208-.105.312-.051.104-.155.104-.26.104h-.363c-.26 0-.623.052-1.039.208-.156.052-.467.207-.935.415-.312.156-.571.208-.727.208-.156 0-.26-.052-.364-.208-.104-.156-.104-.26-.104-.415 0-.208.104-.52.26-.935.571-1.351 1.143-2.598 1.818-3.689a126.908 126.908 0 0 1 2.13-3.428c.156-.208.26-.416.416-.572.207-.311.415-.52.571-.52.104 0 .156.053.208.105a.394.394 0 0 1 .104.207c0 .104-.052.26-.208.52-.052.052-.208.312-.571.831-.624.935-1.091 1.662-1.455 2.182-.312.52-.623 1.09-.987 1.714-.727 1.247-1.195 2.338-1.403 3.169zm8.935-8.987c.052 0 .156.052.208.104a.397.397 0 0 1 .104.26c0 .104-.052.311-.208.52-.052.103-.26.467-.675 1.038-1.818 2.753-2.961 5.247-3.48 7.48-.052.364-.156.52-.364.52a.286.286 0 0 1-.26-.156c-.052-.104-.104-.208-.104-.311 0-.26.104-.728.312-1.403.52-1.558 1.403-3.429 2.65-5.61.519-.884.934-1.559 1.298-2.026.26-.26.416-.416.52-.416zm2.286 3.117c.208-.104.572-.364 1.195-.78.156-.103.623-.415 1.403-.882.311-.208.727-.416 1.194-.676.312-.156.52-.208.624-.208.052 0 .104.052.208.104.051.052.103.156.103.312s-.052.26-.155.364c-.052.052-.208.104-.416.207-1.455.624-2.65 1.403-3.584 2.286-.156.52-.208 1.091-.312 1.61a19.8 19.8 0 0 0-.208 2.806c0 .26.052.467.104.623.052.156.156.208.26.208.26 0 .727-.572 1.402-1.662.156-.208.26-.312.312-.312.104 0 .156.052.156.208 0 .207-.208.623-.572 1.246-.571.936-1.09 1.403-1.558 1.403-.364 0-.623-.208-.78-.675-.103-.312-.103-.624-.103-1.091 0-.883.104-1.818.312-2.805.207-.987.311-1.61.363-1.87-.26.519-.727 1.402-1.402 2.649-.832 1.61-1.3 2.857-1.507 3.792-.052.312-.208.468-.364.468-.103 0-.207-.052-.311-.208-.052-.052-.052-.156-.052-.312 0-.415.208-1.039.571-1.922.208-.52.468-1.143.831-1.87.156-.26.416-.831.884-1.662 1.039-1.819 1.662-3.117 1.922-3.949.104-.311.155-.467.207-.57.104-.105.156-.157.312-.157.052 0 .104 0 .156.052a.397.397 0 0 1 .104.26c-.052.312-.468 1.35-1.299 3.013zm6.13.935l.26-.052c.987-.208 1.714-.312 2.078-.312.26 0 .415.104.415.364 0 .156-.052.26-.156.312-.052.052-.207.052-.415.052-1.143.103-2.078.26-2.65.467-.26.416-.57 1.143-1.038 2.234-.26.623-.468 1.195-.624 1.766.104-.052.208-.104.312-.104.675-.26 1.143-.415 1.454-.467a5.035 5.035 0 0 1 1.195-.156c.26 0 .416.052.52.104.104.052.156.156.156.311 0 .156-.052.26-.208.312-.052 0-.208.052-.416.052-1.195.052-2.234.416-3.169.987-.104.052-.207.104-.311.104a.45.45 0 0 1-.364-.208c-.104-.104-.104-.26-.104-.363 0-.104.156-.572.416-1.403a27.907 27.907 0 0 1 1.766-4c.208-.416.623-1.195 1.247-2.234.156-.26.26-.467.415-.727-.156-.052-.26-.208-.26-.416 0-.156.052-.26.208-.363.26-.104.676-.26 1.35-.364.988-.156 1.82-.26 2.546-.26.416 0 .572.104.572.364a.472.472 0 0 1-.208.416c-.052.051-.156.103-.312.103h-.363c-.312 0-.78.052-1.403.104-.52.052-.987.156-1.35.312.051.052.051.156.051.156 0 .104-.103.26-.311.571l-.312.572c-.52.83-.831 1.402-.987 1.766zm11.429.935c-.935.208-1.87.52-2.91.987-.051.104-.051.156-.103.26-.624 1.35-1.04 2.597-1.247 3.792-.052.26-.156.416-.312.416-.104 0-.208-.052-.312-.208-.051-.104-.103-.208-.103-.312 0-.156.052-.415.155-.883.104-.468.208-.831.364-1.195.052-.104.208-.467.416-1.09l.155-.468c-.103.052-.207.104-.415.156-.052.052-.156.052-.208.052-.156 0-.208-.104-.208-.364 0-.156.052-.26.156-.364.104-.052.26-.156.468-.26.26-.103.415-.207.571-.26.104-.155.26-.519.52-1.09.052-.104.207-.364.467-.883.727-1.403 1.195-2.338 1.455-2.961.207-.52.311-.831.363-.883.104-.156.208-.208.312-.208.208 0 .312.104.312.363 0 .52-.624 1.974-1.922 4.26a7.982 7.982 0 0 0-.468.987l.364-.104a60.916 60.916 0 0 1 2.493-.779 41.73 41.73 0 0 1 1.922-3.532c.156-.208.208-.364.208-.416.104-.208.208-.312.364-.312.104 0 .208.052.26.156.051.104.103.156.103.26 0 .156-.104.415-.26.78-.051.103-.207.415-.57.986-.572.987-.936 1.662-1.092 2.026h.312c.364 0 .52.104.52.312 0 .104-.052.26-.156.363-.104.104-.156.156-.26.156h-.26c-.104 0-.26 0-.467.052-.935 1.922-1.559 3.585-1.87 4.987-.052.312-.208.468-.364.468-.104 0-.208-.104-.312-.26a.963.963 0 0 1-.104-.364c0-.467.572-2.026 1.663-4.623zm6.181-4.104c-.311.052-.727.26-1.194.52-.104.052-.156.104-.26.104-.052 0-.104-.052-.208-.104a.397.397 0 0 1-.104-.26c0-.104.052-.208.156-.312.26-.208.623-.415 1.039-.571.468-.208.935-.26 1.403-.26.52 0 .987.208 1.35.623.312.364.468.832.468 1.403 0 .883-.312 2.026-.987 3.325-.728 1.402-1.559 2.649-2.598 3.74-.883.935-1.61 1.403-2.233 1.403-.364 0-.676-.208-.884-.572-.155-.312-.26-.623-.26-.987 0-.935.312-2.026.884-3.273.831-1.766 1.974-3.324 3.428-4.779zm.364-.104c.052.104.104.208.104.26 0 .052-.104.26-.364.571-.987 1.195-1.714 2.182-2.182 2.961-.519.832-.883 1.61-1.142 2.442a4.637 4.637 0 0 0-.26 1.558c0 .208.052.416.104.572.104.208.26.26.467.26.416 0 .987-.416 1.663-1.195a15.375 15.375 0 0 0 2.181-3.117c.624-1.195.936-2.234.936-3.117 0-.416-.104-.727-.364-.987-.156-.208-.416-.312-.727-.312l-.416.104zm5.299 6.494c.156-.26.467-.78.987-1.715.467-.779 1.143-1.87 2.13-3.324.571-.831 1.09-1.559 1.558-2.13.26-.364.52-.52.727-.52.104 0 .208.052.312.156.052.052.104.156.104.312s-.104.416-.26.831c-.052.052-.208.416-.571 1.091-.572 1.195-.987 2.026-1.195 2.545a46.626 46.626 0 0 0-1.299 3.533c-.156.571-.26.987-.26 1.299v.207c0 .208.052.312.052.364 0 .156-.051.26-.155.416-.104.104-.208.156-.312.156-.104 0-.208-.104-.312-.26a1.304 1.304 0 0 1-.104-.52c0-1.402 1.04-4.207 3.17-8.415-1.092 1.35-2.338 3.22-3.69 5.714-.31.52-.519.883-.726 1.09-.208.209-.364.26-.52.26a.39.39 0 0 1-.364-.26.963.963 0 0 1-.103-.363c0-1.246.675-3.22 2.026-5.922-.468.52-.884 1.143-1.3 1.818a27.716 27.716 0 0 0-2.025 3.896c-.26.624-.623 1.507-1.04 2.546-.207.52-.415.831-.726.831-.052 0-.104-.052-.156-.104-.052-.052-.052-.104-.052-.156 0-.104.104-.363.26-.779.363-.935.623-1.61.83-2.026a39.647 39.647 0 0 1 3.43-5.974c.57-.78.934-1.299 1.142-1.506.208-.26.416-.364.572-.364.104 0 .155.052.26.156a.472.472 0 0 1 .155.363c0 .156-.104.416-.26.728a28.714 28.714 0 0 0-1.506 3.324c-.416.987-.675 1.923-.78 2.702zm7.74-3.221l.26-.052c.987-.208 1.714-.312 2.078-.312.26 0 .415.104.415.364 0 .156-.052.26-.156.312-.052.052-.207.052-.415.052-1.143.103-2.078.26-2.65.467-.26.416-.57 1.143-1.038 2.234-.26.623-.468 1.195-.624 1.766.104-.052.208-.104.312-.104.675-.26 1.143-.415 1.454-.467a5.035 5.035 0 0 1 1.195-.156c.26 0 .416.052.52.104.104.052.156.156.156.311 0 .156-.052.26-.208.312-.052 0-.208.052-.416.052-1.195.052-2.234.416-3.169.987-.104.052-.207.104-.311.104a.45.45 0 0 1-.364-.208c-.104-.104-.104-.26-.104-.363 0-.104.156-.572.416-1.403a27.907 27.907 0 0 1 1.766-4c.208-.416.623-1.195 1.247-2.234.155-.26.26-.467.415-.727-.156-.052-.26-.208-.26-.416 0-.156.052-.26.208-.363.26-.104.676-.26 1.35-.364.988-.156 1.82-.26 2.546-.26.416 0 .572.104.572.364a.472.472 0 0 1-.208.416c-.052.051-.156.103-.312.103h-.363c-.312 0-.78.052-1.403.104-.52.052-.987.156-1.35.312.051.052.051.156.051.156 0 .104-.103.26-.311.571l-.312.572c-.468.83-.78 1.402-.987 1.766z" fill="#F5B4B4"/><path d="M93.922 74.026v3.065h5.142v-5.143H96a2.084 2.084 0 0 0-2.078 2.078zm0 7.429a2.14 2.14 0 0 0 2.13 2.13h3.064v-5.143h-5.142v3.013h-.052zm6.441 2.078h3.065a2.14 2.14 0 0 0 2.13-2.13v-3.065h-5.143v5.195h-.052zm6.805-13.195c.052-.052.052-.052.052-.104v-.052h-.156-.415c-1.507.156-2.182.883-2.91 2.078-.051.052-.051.104-.103.104s-.104-.052-.156-.052c-.104-.052-.208-.052-.312-.104-.104 0-.156-.052-.26-.104a.75.75 0 0 0-.363-.104c-.104-.052-.26-.052-.416-.052-.104 0-.207.052-.363.104-.208.104-.416.26-.572.468l-.311.467c-.052.052-.052.156-.104.208 0 .052-.052.104-.052.104-.052.104-.052.156-.104.26-.052.103-.052.207-.052.311 0 .156-.052.312-.052.468 0 .415.052.831.208 1.195.052.155.104.26.208.415.052.052.052.104.103.156.052.104.156.156.208.26.208.156.416.363.624.363h.467c.104 0 .156 0 .26.052.104.052.208.104.312.104.103.052.155.052.26.052h.363c.104 0 .26-.052.312-.052a.843.843 0 0 0 .467-.26 2.26 2.26 0 0 0 .364-.311l.26-.26c.052-.104.155-.156.207-.26.052-.052.104-.104.104-.156.052-.103.156-.207.208-.311.156-.312.208-.624.208-1.04v-.415c0-.104 0-.156-.052-.208 0-.051-.052-.103-.052-.155 0 0 0-.052-.052-.052 0-.052-.052-.104-.052-.156-.052-.104-.156-.208-.26-.312a.837.837 0 0 0-.363-.208c-.208-.104-.416-.155-.572-.207-.156-.052-.311-.052-.415-.104.052-.052.052-.104.104-.156.623-.987 1.194-1.87 2.7-1.87H107.22c-.052 0-.052 0-.052-.104 0 .052 0 .052 0 0z" fill="#EAB1AA"/></g></svg>