<svg width="52" height="58" viewBox="0 0 52 58" xmlns="http://www.w3.org/2000/svg"><title>icon_plans</title><g fill="none" fill-rule="evenodd"><path stroke="#FFB8B8" stroke-width="2" d="M1.5 15.875h20.2L32.124 27.51v28.615H1.5z"/><path fill-opacity=".4" fill="#FFB8B8" d="M6.75 32.5h20.125v2.625H6.75zM6.75 25.5h20.125v2.625H6.75zM6.75 46.5h20.125v2.625H6.75zM6.75 39.5h20.125v2.625H6.75z"/><path stroke="#FFB8B8" stroke-width="2" fill="#FFF" stroke-linejoin="round" d="M21.565 15.875v11.651H31.99z"/><g><path stroke="#FFB8B8" stroke-width="2" fill="#FFF" d="M19.875 1.875h20.2L50.5 13.51v28.615H19.875z"/><path fill-opacity=".4" fill="#FFB8B8" d="M25.125 18.5H45.25v2.625H25.125zM25.125 11.5H45.25v2.625H25.125zM25.125 32.5H45.25v2.625H25.125zM25.125 25.5H45.25v2.625H25.125z"/><path stroke="#FFB8B8" stroke-width="2" fill="#FFF" stroke-linejoin="round" d="M39.94 1.875v11.651h10.425z"/></g></g></svg>