<svg width="56" height="56" viewBox="0 0 56 56" xmlns="http://www.w3.org/2000/svg" xmlns:xlink="http://www.w3.org/1999/xlink"><title>icon_measure</title><defs><path id="a" d="M11.375 0v44.625H56V33.25H23.187V0z"/></defs><g fill="none" fill-rule="evenodd"><path d="M43.625 55h-9.813V21.75H1v-9.375h42.625V55z" stroke="#FFB8B8" stroke-width="2"/><g fill="#FFB8B8" fill-opacity=".4"><path d="M42.875 20.125v1.75H38.5v-1.75zM42.875 15.75v1.75H38.5v-1.75zM42.875 28.875v1.75H38.5v-1.75zM42.875 33.25V35H38.5v-1.75zM42.875 50.75v1.75H38.5v-1.75zM42.875 46.375v1.75H38.5v-1.75zM42.875 37.625v1.75H38.5v-1.75zM42.875 24.5v1.75H38.5V24.5zM42.875 42v1.75H38.5V42z"/></g><g><use fill="#FFF" xlink:href="#a"/><path stroke="#FFB8B8" stroke-width="2" d="M12.375 1h9.813v33.25H55v9.375H12.375V1z"/></g><g fill="#FFB8B8" fill-opacity=".4"><path d="M19.25 38.5H21v4.375h-1.75zM14.875 38.5h1.75v4.375h-1.75zM28 38.5h1.75v4.375H28zM32.375 38.5h1.75v4.375h-1.75zM49.875 38.5h1.75v4.375h-1.75zM45.5 38.5h1.75v4.375H45.5zM36.75 38.5h1.75v4.375h-1.75zM23.625 38.5h1.75v4.375h-1.75zM41.125 38.5h1.75v4.375h-1.75z"/></g></g></svg>