<svg width="53" height="46" viewBox="0 0 53 46" xmlns="http://www.w3.org/2000/svg" xmlns:xlink="http://www.w3.org/1999/xlink"><title>icon_tools</title><defs><path id="a" d="M12.25 10.958H21v41.125h-8.75z"/></defs><g fill="none" fill-rule="evenodd"><path d="M19.847 29.148l2.336 2.337c-.776.859-1.319 1.632-1.663 2.32a4.506 4.506 0 0 0-.346.892l-8.35 8.35L8.29 39.51l8.388-8.388a6.46 6.46 0 0 0 .99-.435c.692-.366 1.423-.872 2.18-1.54zM19.868 28.992L42.451 6.41l2.785-.31-.31 2.785-22.583 22.583z" stroke="#FFB8B8" stroke-width="2"/><path fill="#FFB8B8" opacity=".4" d="M18.63 28.992l3.094 3.094-9.9 9.9-3.093-3.094z"/><g><g transform="rotate(-45 21.513 7.85)"><use fill="#FFF" xlink:href="#a"/><path stroke="#FFB8B8" stroke-width="2" d="M13.25 11.958H20v39.125h-6.75z"/></g><path d="M9.117 25.878C25.347 9.65 31.843 1.915 35.246 5.318 23.8-6.128 9.246 10.253 1.369 18.13l7.748 7.748z" stroke="#FFB8B8" stroke-width="2"/><path fill="#FFB8B8" opacity=".4" d="M1.835 18.311l3.094-3.094 6.806 6.806-3.094 3.094z"/></g></g></svg>